<svg width="24" height="24" viewBox="0 0 24 24" fill="none" xmlns="http://www.w3.org/2000/svg">
<path d="M11 13.9999L15.9497 18.9496" stroke="#60626C" stroke-width="1.5" stroke-linecap="round" stroke-linejoin="round"/>
<path d="M11 10L15.9497 5.05025" stroke="#60626C" stroke-width="1.5" stroke-linecap="round" stroke-linejoin="round"/>
<path d="M10.5 11.75C10.5 9.95507 9.04493 8.5 7.25 8.5C5.45507 8.5 4 9.95507 4 11.75C4 13.5449 5.45507 15 7.25 15C9.04493 15 10.5 13.5449 10.5 11.75Z" stroke="#60626C" stroke-width="1.5" stroke-linecap="round" stroke-linejoin="round"/>
<path d="M22 19C22 17.3431 20.6569 16 19 16C17.3431 16 16 17.3431 16 19C16 20.6569 17.3431 22 19 22C20.6569 22 22 20.6569 22 19Z" stroke="#60626C" stroke-width="1.5" stroke-linecap="round" stroke-linejoin="round"/>
<path d="M22 5C22 3.34315 20.6569 2 19 2C17.3431 2 16 3.34315 16 5C16 6.65685 17.3431 8 19 8C20.6569 8 22 6.65685 22 5Z" stroke="#60626C" stroke-width="1.5" stroke-linecap="round" stroke-linejoin="round"/>
</svg>
